<?xml version="1.0" encoding="UTF-8" standalone="no"?>
<svg
   xmlns:dc="http://purl.org/dc/elements/1.1/"
   xmlns:cc="http://creativecommons.org/ns#"
   xmlns:rdf="http://www.w3.org/1999/02/22-rdf-syntax-ns#"
   xmlns:svg="http://www.w3.org/2000/svg"
   xmlns="http://www.w3.org/2000/svg"
   xmlns:sodipodi="http://sodipodi.sourceforge.net/DTD/sodipodi-0.dtd"
   xmlns:inkscape="http://www.inkscape.org/namespaces/inkscape"
   id="Capa_1"
   enable-background="new 0 0 512 512"
   height="512"
   viewBox="0 0 512 512"
   width="512"
   version="1.1"
   sodipodi:docname="facebook.svg"
   inkscape:version="1.0.1 (1.0.1+r74)">
  <metadata
     id="metadata9">
    <rdf:RDF>
      <cc:Work
         rdf:about="">
        <dc:format>image/svg+xml</dc:format>
        <dc:type
           rdf:resource="http://purl.org/dc/dcmitype/StillImage" />
      </cc:Work>
    </rdf:RDF>
  </metadata>
  <defs
     id="defs7" />
  <sodipodi:namedview
     pagecolor="#ffffff"
     bordercolor="#666666"
     borderopacity="1"
     objecttolerance="10"
     gridtolerance="10"
     guidetolerance="10"
     inkscape:pageopacity="0"
     inkscape:pageshadow="2"
     inkscape:window-width="1366"
     inkscape:window-height="738"
     id="namedview5"
     showgrid="false"
     inkscape:zoom="1.1251956"
     inkscape:cx="256"
     inkscape:cy="256"
     inkscape:window-x="0"
     inkscape:window-y="0"
     inkscape:window-maximized="1"
     inkscape:current-layer="Capa_1" />
  <path
     d="M 512,256 C 512,114.6 397.4,0 256,0 114.6,0 0,114.6 0,256 c 0,141.4 114.6,256 256,256 1.5,0 3,0 4.5,-0.1 V 312.7 h -55 v -64.1 h 55 v -47.2 c 0,-54.7 33.4,-84.5 82.2,-84.5 23.4,0 43.5,1.7 49.3,2.5 v 57.2 h -33.6 c -26.5,0 -31.7,12.6 -31.7,31.1 v 40.8 h 63.5 l -8.3,64.1 H 326.7 V 383.48106 502.1 C 433.7,471.4 512,372.9 512,256 Z"
     id="path2"
     style="fill:#ffffff"
     sodipodi:nodetypes="sssscccccssccssccccccs" />
</svg>
